<svg width="221" height="32" viewBox="0 0 221 32" fill="none" xmlns="http://www.w3.org/2000/svg">
<rect width="32" height="32" rx="8" fill="#553F5D"/>
<mask id="mask0_2214_31" style="mask-type:alpha" maskUnits="userSpaceOnUse" x="6" y="6" width="20" height="20">
<rect x="6" y="6" width="20" height="20" fill="#D9D9D9"/>
</mask>
<g mask="url(#mask0_2214_31)">
<path d="M19.2083 21.6923V20.5417H16.7981C16.4282 20.5417 16.1125 20.4109 15.8508 20.1492C15.5891 19.8875 15.4583 19.5718 15.4583 19.2019V12.5417H12.7916V13.6923C12.7916 13.998 12.6848 14.2577 12.4712 14.4713C12.2576 14.6849 11.998 14.7917 11.6923 14.7917H9.30769C9.00199 14.7917 8.74234 14.6847 8.52873 14.4707C8.31512 14.2568 8.20831 13.9967 8.20831 13.6905V10.3021C8.20831 9.99601 8.31512 9.73719 8.52873 9.52567C8.74234 9.31414 9.00199 9.20837 9.30769 9.20837H11.6923C11.998 9.20837 12.2576 9.31518 12.4712 9.52879C12.6848 9.7424 12.7916 10.0021 12.7916 10.3077V11.4584H19.2083V10.3042C19.2083 9.99671 19.3151 9.73719 19.5287 9.52567C19.7423 9.31414 20.002 9.20837 20.3077 9.20837H22.6923C22.998 9.20837 23.2576 9.31539 23.4712 9.52942C23.6848 9.7433 23.7916 10.0034 23.7916 10.3096V13.698C23.7916 14.0041 23.6848 14.2629 23.4712 14.4744C23.2576 14.6859 22.998 14.7917 22.6923 14.7917H20.3077C20.002 14.7917 19.7423 14.6849 19.5287 14.4713C19.3151 14.2577 19.2083 13.998 19.2083 13.6923V12.5417H16.5416V19.2019C16.5416 19.2768 16.5657 19.3382 16.6137 19.3863C16.6618 19.4343 16.7232 19.4584 16.7981 19.4584H19.2083V18.3042C19.2083 17.9967 19.3151 17.7372 19.5287 17.5257C19.7423 17.3141 20.002 17.2084 20.3077 17.2084H22.6923C22.998 17.2084 23.2576 17.3154 23.4712 17.5294C23.6848 17.7433 23.7916 18.0034 23.7916 18.3096V21.698C23.7916 22.0041 23.6848 22.2629 23.4712 22.4744C23.2576 22.6859 22.998 22.7917 22.6923 22.7917H20.3077C20.002 22.7917 19.7423 22.6849 19.5287 22.4713C19.3151 22.2577 19.2083 21.998 19.2083 21.6923ZM20.2916 13.7084H22.7083V10.2917H20.2916V13.7084ZM20.2916 21.7084H22.7083V18.2917H20.2916V21.7084ZM9.29165 13.7084H11.7083V10.2917H9.29165V13.7084Z" fill="#F7D8FF"/>
</g>
<path d="M34 16C34 7.16344 41.1634 0 50 0H127C131.418 0 135 3.58172 135 8V24C135 28.4183 131.418 32 127 32H50C41.1634 32 34 24.8366 34 16V16Z" fill="#DABDE2"/>
<path d="M53.1914 19.9268V21H48.2148V19.9268H53.1914ZM48.4746 11.0469V21H47.1553V11.0469H48.4746ZM58.8721 19.7354V15.9277C58.8721 15.6361 58.8128 15.3831 58.6943 15.1689C58.5804 14.9502 58.4072 14.7816 58.1748 14.6631C57.9424 14.5446 57.6553 14.4854 57.3135 14.4854C56.9945 14.4854 56.7142 14.54 56.4727 14.6494C56.2357 14.7588 56.0488 14.9023 55.9121 15.0801C55.7799 15.2578 55.7139 15.4492 55.7139 15.6543H54.4492C54.4492 15.39 54.5176 15.1279 54.6543 14.8682C54.791 14.6084 54.987 14.3737 55.2422 14.1641C55.502 13.9499 55.8118 13.7812 56.1719 13.6582C56.5365 13.5306 56.9421 13.4668 57.3887 13.4668C57.9264 13.4668 58.4004 13.5579 58.8105 13.7402C59.2253 13.9225 59.5488 14.1982 59.7812 14.5674C60.0182 14.932 60.1367 15.39 60.1367 15.9414V19.3867C60.1367 19.6328 60.1572 19.8949 60.1982 20.1729C60.2438 20.4508 60.3099 20.6901 60.3965 20.8906V21H59.0771C59.0133 20.8542 58.9632 20.6605 58.9268 20.4189C58.8903 20.1729 58.8721 19.945 58.8721 19.7354ZM59.0908 16.5156L59.1045 17.4043H57.8262C57.4661 17.4043 57.1449 17.4339 56.8623 17.4932C56.5798 17.5479 56.3428 17.6322 56.1514 17.7461C55.96 17.86 55.8141 18.0036 55.7139 18.1768C55.6136 18.3454 55.5635 18.5436 55.5635 18.7715C55.5635 19.0039 55.6159 19.2158 55.7207 19.4072C55.8255 19.5986 55.9827 19.7513 56.1924 19.8652C56.4066 19.9746 56.6686 20.0293 56.9785 20.0293C57.3659 20.0293 57.7077 19.9473 58.0039 19.7832C58.3001 19.6191 58.5348 19.4186 58.708 19.1816C58.8857 18.9447 58.9814 18.7145 58.9951 18.4912L59.5352 19.0996C59.5033 19.291 59.4167 19.5029 59.2754 19.7354C59.1341 19.9678 58.945 20.1911 58.708 20.4053C58.4756 20.6149 58.1976 20.7904 57.874 20.9316C57.555 21.0684 57.195 21.1367 56.7939 21.1367C56.2926 21.1367 55.8529 21.0387 55.4746 20.8428C55.1009 20.6468 54.8092 20.3848 54.5996 20.0566C54.3945 19.724 54.292 19.3525 54.292 18.9424C54.292 18.5459 54.3695 18.1973 54.5244 17.8965C54.6794 17.5911 54.9027 17.3382 55.1943 17.1377C55.486 16.9326 55.8369 16.7777 56.2471 16.6729C56.6572 16.568 57.1152 16.5156 57.6211 16.5156H59.0908ZM66.4326 19.0381C66.4326 18.8558 66.3916 18.6872 66.3096 18.5322C66.2321 18.3727 66.0703 18.2292 65.8242 18.1016C65.5827 17.9694 65.2181 17.8555 64.7305 17.7598C64.3203 17.6732 63.9489 17.5706 63.6162 17.4521C63.2881 17.3337 63.0078 17.1901 62.7754 17.0215C62.5475 16.8529 62.3721 16.6546 62.249 16.4268C62.126 16.1989 62.0645 15.9323 62.0645 15.627C62.0645 15.3353 62.1283 15.0596 62.2559 14.7998C62.388 14.54 62.5726 14.3099 62.8096 14.1094C63.0511 13.9089 63.3405 13.7516 63.6777 13.6377C64.015 13.5238 64.391 13.4668 64.8057 13.4668C65.3981 13.4668 65.904 13.5716 66.3232 13.7812C66.7425 13.9909 67.0638 14.2712 67.2871 14.6221C67.5104 14.9684 67.6221 15.3535 67.6221 15.7773H66.3574C66.3574 15.5723 66.2959 15.374 66.1729 15.1826C66.0544 14.9867 65.8789 14.8249 65.6465 14.6973C65.4186 14.5697 65.1383 14.5059 64.8057 14.5059C64.4548 14.5059 64.1699 14.5605 63.9512 14.6699C63.737 14.7747 63.5798 14.9092 63.4795 15.0732C63.3838 15.2373 63.3359 15.4105 63.3359 15.5928C63.3359 15.7295 63.3587 15.8525 63.4043 15.9619C63.4544 16.0667 63.541 16.1647 63.6641 16.2559C63.7871 16.3424 63.9603 16.4245 64.1836 16.502C64.4069 16.5794 64.6917 16.6569 65.0381 16.7344C65.6442 16.8711 66.1432 17.0352 66.5352 17.2266C66.9271 17.418 67.2188 17.6527 67.4102 17.9307C67.6016 18.2087 67.6973 18.5459 67.6973 18.9424C67.6973 19.266 67.6289 19.5622 67.4922 19.8311C67.36 20.0999 67.1663 20.3324 66.9111 20.5283C66.6605 20.7197 66.3597 20.8701 66.0088 20.9795C65.6624 21.0843 65.2728 21.1367 64.8398 21.1367C64.1882 21.1367 63.6367 21.0205 63.1855 20.7881C62.7344 20.5557 62.3926 20.2549 62.1602 19.8857C61.9277 19.5166 61.8115 19.127 61.8115 18.7168H63.083C63.1012 19.0632 63.2015 19.3389 63.3838 19.5439C63.5661 19.7445 63.7894 19.888 64.0537 19.9746C64.318 20.0566 64.5801 20.0977 64.8398 20.0977C65.1862 20.0977 65.4756 20.0521 65.708 19.9609C65.945 19.8698 66.125 19.7445 66.248 19.585C66.3711 19.4255 66.4326 19.2432 66.4326 19.0381ZM72.4551 13.6035V14.5742H68.4561V13.6035H72.4551ZM69.8096 11.8057H71.0742V19.168C71.0742 19.4186 71.113 19.6077 71.1904 19.7354C71.2679 19.863 71.3682 19.9473 71.4912 19.9883C71.6143 20.0293 71.7464 20.0498 71.8877 20.0498C71.9925 20.0498 72.1019 20.0407 72.2158 20.0225C72.3343 19.9997 72.4232 19.9814 72.4824 19.9678L72.4893 21C72.389 21.0319 72.2568 21.0615 72.0928 21.0889C71.9333 21.1208 71.7396 21.1367 71.5117 21.1367C71.2018 21.1367 70.917 21.0752 70.6572 20.9521C70.3975 20.8291 70.1901 20.624 70.0352 20.3369C69.8848 20.0452 69.8096 19.6533 69.8096 19.1611V11.8057ZM80.3711 20.0977C80.6719 20.0977 80.9499 20.0361 81.2051 19.9131C81.4603 19.79 81.6699 19.6214 81.834 19.4072C81.998 19.1885 82.0915 18.9401 82.1143 18.6621H83.3174C83.2946 19.0996 83.1465 19.5075 82.873 19.8857C82.6042 20.2594 82.251 20.5625 81.8135 20.7949C81.376 21.0228 80.8952 21.1367 80.3711 21.1367C79.8151 21.1367 79.3298 21.0387 78.915 20.8428C78.5049 20.6468 78.1631 20.3779 77.8896 20.0361C77.6208 19.6943 77.418 19.3024 77.2812 18.8604C77.1491 18.4137 77.083 17.9421 77.083 17.4453V17.1582C77.083 16.6615 77.1491 16.1921 77.2812 15.75C77.418 15.3034 77.6208 14.9092 77.8896 14.5674C78.1631 14.2256 78.5049 13.9567 78.915 13.7607C79.3298 13.5648 79.8151 13.4668 80.3711 13.4668C80.9499 13.4668 81.4557 13.5853 81.8887 13.8223C82.3216 14.0547 82.6611 14.3737 82.9072 14.7793C83.1579 15.1803 83.2946 15.6361 83.3174 16.1465H82.1143C82.0915 15.8411 82.0049 15.5654 81.8545 15.3193C81.7087 15.0732 81.5081 14.8773 81.2529 14.7314C81.0023 14.5811 80.7083 14.5059 80.3711 14.5059C79.9837 14.5059 79.6579 14.5833 79.3936 14.7383C79.1338 14.8887 78.9264 15.0938 78.7715 15.3535C78.6211 15.6087 78.5117 15.8936 78.4434 16.208C78.3796 16.5179 78.3477 16.8346 78.3477 17.1582V17.4453C78.3477 17.7689 78.3796 18.0879 78.4434 18.4023C78.5072 18.7168 78.6143 19.0016 78.7646 19.2568C78.9196 19.512 79.127 19.7171 79.3867 19.8721C79.651 20.0225 79.9792 20.0977 80.3711 20.0977ZM84.4043 17.3838V17.2266C84.4043 16.6934 84.4818 16.1989 84.6367 15.7432C84.7917 15.2829 85.015 14.8841 85.3066 14.5469C85.5983 14.2051 85.9515 13.9408 86.3662 13.7539C86.7809 13.5625 87.2458 13.4668 87.7607 13.4668C88.2803 13.4668 88.7474 13.5625 89.1621 13.7539C89.5814 13.9408 89.9368 14.2051 90.2285 14.5469C90.5247 14.8841 90.7503 15.2829 90.9053 15.7432C91.0602 16.1989 91.1377 16.6934 91.1377 17.2266V17.3838C91.1377 17.917 91.0602 18.4115 90.9053 18.8672C90.7503 19.3229 90.5247 19.7217 90.2285 20.0635C89.9368 20.4007 89.5837 20.665 89.1689 20.8564C88.7588 21.0433 88.2939 21.1367 87.7744 21.1367C87.2549 21.1367 86.7878 21.0433 86.373 20.8564C85.9583 20.665 85.6029 20.4007 85.3066 20.0635C85.015 19.7217 84.7917 19.3229 84.6367 18.8672C84.4818 18.4115 84.4043 17.917 84.4043 17.3838ZM85.6689 17.2266V17.3838C85.6689 17.7529 85.7122 18.1016 85.7988 18.4297C85.8854 18.7533 86.0153 19.0404 86.1885 19.291C86.3662 19.5417 86.5872 19.7399 86.8516 19.8857C87.1159 20.027 87.4235 20.0977 87.7744 20.0977C88.1208 20.0977 88.4238 20.027 88.6836 19.8857C88.9479 19.7399 89.1667 19.5417 89.3398 19.291C89.513 19.0404 89.6429 18.7533 89.7295 18.4297C89.8206 18.1016 89.8662 17.7529 89.8662 17.3838V17.2266C89.8662 16.862 89.8206 16.5179 89.7295 16.1943C89.6429 15.8662 89.5107 15.5768 89.333 15.3262C89.1598 15.071 88.9411 14.8704 88.6768 14.7246C88.417 14.5788 88.1117 14.5059 87.7607 14.5059C87.4144 14.5059 87.109 14.5788 86.8447 14.7246C86.585 14.8704 86.3662 15.071 86.1885 15.3262C86.0153 15.5768 85.8854 15.8662 85.7988 16.1943C85.7122 16.5179 85.6689 16.862 85.6689 17.2266ZM93.9814 15.0732V21H92.71V13.6035H93.9131L93.9814 15.0732ZM93.7217 17.0215L93.1338 17.001C93.1383 16.4951 93.2044 16.028 93.332 15.5996C93.4596 15.1667 93.6488 14.7907 93.8994 14.4717C94.1501 14.1527 94.4622 13.9066 94.8359 13.7334C95.2096 13.5557 95.6426 13.4668 96.1348 13.4668C96.4811 13.4668 96.8001 13.5169 97.0918 13.6172C97.3835 13.7129 97.6364 13.8656 97.8506 14.0752C98.0648 14.2848 98.2311 14.5537 98.3496 14.8818C98.4681 15.21 98.5273 15.6064 98.5273 16.0713V21H97.2627V16.1328C97.2627 15.7454 97.1966 15.4355 97.0645 15.2031C96.9368 14.9707 96.7546 14.8021 96.5176 14.6973C96.2806 14.5879 96.0026 14.5332 95.6836 14.5332C95.3099 14.5332 94.9977 14.5993 94.7471 14.7314C94.4964 14.8636 94.2959 15.0459 94.1455 15.2783C93.9951 15.5107 93.8857 15.7773 93.8174 16.0781C93.7536 16.3743 93.7217 16.6888 93.7217 17.0215ZM98.5137 16.3242L97.666 16.584C97.6706 16.1784 97.7367 15.7887 97.8643 15.415C97.9964 15.0413 98.1855 14.7087 98.4316 14.417C98.6823 14.1253 98.9899 13.8952 99.3545 13.7266C99.7191 13.5534 100.136 13.4668 100.605 13.4668C101.002 13.4668 101.353 13.5192 101.658 13.624C101.968 13.7288 102.228 13.8906 102.438 14.1094C102.652 14.3236 102.813 14.5993 102.923 14.9365C103.032 15.2738 103.087 15.6748 103.087 16.1396V21H101.815V16.126C101.815 15.7113 101.749 15.39 101.617 15.1621C101.49 14.9297 101.307 14.7679 101.07 14.6768C100.838 14.5811 100.56 14.5332 100.236 14.5332C99.9583 14.5332 99.7122 14.5811 99.498 14.6768C99.2839 14.7725 99.1038 14.9046 98.958 15.0732C98.8122 15.2373 98.7005 15.4264 98.623 15.6406C98.5501 15.8548 98.5137 16.0827 98.5137 16.3242ZM106.259 15.0732V21H104.987V13.6035H106.19L106.259 15.0732ZM105.999 17.0215L105.411 17.001C105.416 16.4951 105.482 16.028 105.609 15.5996C105.737 15.1667 105.926 14.7907 106.177 14.4717C106.427 14.1527 106.74 13.9066 107.113 13.7334C107.487 13.5557 107.92 13.4668 108.412 13.4668C108.758 13.4668 109.077 13.5169 109.369 13.6172C109.661 13.7129 109.914 13.8656 110.128 14.0752C110.342 14.2848 110.508 14.5537 110.627 14.8818C110.745 15.21 110.805 15.6064 110.805 16.0713V21H109.54V16.1328C109.54 15.7454 109.474 15.4355 109.342 15.2031C109.214 14.9707 109.032 14.8021 108.795 14.6973C108.558 14.5879 108.28 14.5332 107.961 14.5332C107.587 14.5332 107.275 14.5993 107.024 14.7314C106.774 14.8636 106.573 15.0459 106.423 15.2783C106.272 15.5107 106.163 15.7773 106.095 16.0781C106.031 16.3743 105.999 16.6888 105.999 17.0215ZM110.791 16.3242L109.943 16.584C109.948 16.1784 110.014 15.7887 110.142 15.415C110.274 15.0413 110.463 14.7087 110.709 14.417C110.96 14.1253 111.267 13.8952 111.632 13.7266C111.996 13.5534 112.413 13.4668 112.883 13.4668C113.279 13.4668 113.63 13.5192 113.936 13.624C114.245 13.7288 114.505 13.8906 114.715 14.1094C114.929 14.3236 115.091 14.5993 115.2 14.9365C115.31 15.2738 115.364 15.6748 115.364 16.1396V21H114.093V16.126C114.093 15.7113 114.027 15.39 113.895 15.1621C113.767 14.9297 113.585 14.7679 113.348 14.6768C113.115 14.5811 112.837 14.5332 112.514 14.5332C112.236 14.5332 111.99 14.5811 111.775 14.6768C111.561 14.7725 111.381 14.9046 111.235 15.0732C111.09 15.2373 110.978 15.4264 110.9 15.6406C110.827 15.8548 110.791 16.0827 110.791 16.3242ZM118.652 13.6035V21H117.381V13.6035H118.652ZM117.285 11.6416C117.285 11.4365 117.347 11.2633 117.47 11.1221C117.597 10.9808 117.784 10.9102 118.03 10.9102C118.272 10.9102 118.456 10.9808 118.584 11.1221C118.716 11.2633 118.782 11.4365 118.782 11.6416C118.782 11.8376 118.716 12.0062 118.584 12.1475C118.456 12.2842 118.272 12.3525 118.03 12.3525C117.784 12.3525 117.597 12.2842 117.47 12.1475C117.347 12.0062 117.285 11.8376 117.285 11.6416ZM123.779 13.6035V14.5742H119.78V13.6035H123.779ZM121.134 11.8057H122.398V19.168C122.398 19.4186 122.437 19.6077 122.515 19.7354C122.592 19.863 122.692 19.9473 122.815 19.9883C122.938 20.0293 123.071 20.0498 123.212 20.0498C123.317 20.0498 123.426 20.0407 123.54 20.0225C123.659 19.9997 123.747 19.9814 123.807 19.9678L123.813 21C123.713 21.0319 123.581 21.0615 123.417 21.0889C123.257 21.1208 123.064 21.1367 122.836 21.1367C122.526 21.1367 122.241 21.0752 121.981 20.9521C121.722 20.8291 121.514 20.624 121.359 20.3369C121.209 20.0452 121.134 19.6533 121.134 19.1611V11.8057Z" fill="#3D2846"/>
<path d="M137 8C137 3.58172 140.582 0 145 0H205C213.837 0 221 7.16344 221 16V16C221 24.8366 213.837 32 205 32H145C140.582 32 137 28.4183 137 24V8Z" fill="#DABDE2"/>
<path d="M148.613 11.0469L151.197 16.0439L153.788 11.0469H155.285L151.854 17.2812V21H150.534V17.2812L147.103 11.0469H148.613ZM159.004 21.1367C158.489 21.1367 158.022 21.0501 157.603 20.877C157.188 20.6992 156.83 20.4508 156.529 20.1318C156.233 19.8128 156.005 19.4346 155.846 18.9971C155.686 18.5596 155.606 18.0811 155.606 17.5615V17.2744C155.606 16.6729 155.695 16.1374 155.873 15.668C156.051 15.194 156.292 14.793 156.598 14.4648C156.903 14.1367 157.249 13.8883 157.637 13.7197C158.024 13.5511 158.425 13.4668 158.84 13.4668C159.368 13.4668 159.824 13.5579 160.207 13.7402C160.594 13.9225 160.911 14.1777 161.157 14.5059C161.403 14.8294 161.586 15.2122 161.704 15.6543C161.823 16.0918 161.882 16.5703 161.882 17.0898V17.6572H156.358V16.625H160.617V16.5293C160.599 16.2012 160.531 15.8822 160.412 15.5723C160.298 15.2624 160.116 15.0072 159.865 14.8066C159.615 14.6061 159.273 14.5059 158.84 14.5059C158.553 14.5059 158.288 14.5674 158.047 14.6904C157.805 14.8089 157.598 14.9867 157.425 15.2236C157.252 15.4606 157.117 15.75 157.021 16.0918C156.926 16.4336 156.878 16.8278 156.878 17.2744V17.5615C156.878 17.9124 156.926 18.2428 157.021 18.5527C157.122 18.8581 157.265 19.127 157.452 19.3594C157.644 19.5918 157.874 19.7741 158.143 19.9062C158.416 20.0384 158.726 20.1045 159.072 20.1045C159.519 20.1045 159.897 20.0133 160.207 19.8311C160.517 19.6488 160.788 19.4049 161.021 19.0996L161.786 19.708C161.627 19.9495 161.424 20.1797 161.178 20.3984C160.932 20.6172 160.629 20.7949 160.269 20.9316C159.913 21.0684 159.492 21.1367 159.004 21.1367ZM167.665 19.0381C167.665 18.8558 167.624 18.6872 167.542 18.5322C167.465 18.3727 167.303 18.2292 167.057 18.1016C166.815 17.9694 166.451 17.8555 165.963 17.7598C165.553 17.6732 165.181 17.5706 164.849 17.4521C164.521 17.3337 164.24 17.1901 164.008 17.0215C163.78 16.8529 163.604 16.6546 163.481 16.4268C163.358 16.1989 163.297 15.9323 163.297 15.627C163.297 15.3353 163.361 15.0596 163.488 14.7998C163.62 14.54 163.805 14.3099 164.042 14.1094C164.284 13.9089 164.573 13.7516 164.91 13.6377C165.247 13.5238 165.623 13.4668 166.038 13.4668C166.631 13.4668 167.136 13.5716 167.556 13.7812C167.975 13.9909 168.296 14.2712 168.52 14.6221C168.743 14.9684 168.854 15.3535 168.854 15.7773H167.59C167.59 15.5723 167.528 15.374 167.405 15.1826C167.287 14.9867 167.111 14.8249 166.879 14.6973C166.651 14.5697 166.371 14.5059 166.038 14.5059C165.687 14.5059 165.402 14.5605 165.184 14.6699C164.969 14.7747 164.812 14.9092 164.712 15.0732C164.616 15.2373 164.568 15.4105 164.568 15.5928C164.568 15.7295 164.591 15.8525 164.637 15.9619C164.687 16.0667 164.773 16.1647 164.896 16.2559C165.02 16.3424 165.193 16.4245 165.416 16.502C165.639 16.5794 165.924 16.6569 166.271 16.7344C166.877 16.8711 167.376 17.0352 167.768 17.2266C168.16 17.418 168.451 17.6527 168.643 17.9307C168.834 18.2087 168.93 18.5459 168.93 18.9424C168.93 19.266 168.861 19.5622 168.725 19.8311C168.592 20.0999 168.399 20.3324 168.144 20.5283C167.893 20.7197 167.592 20.8701 167.241 20.9795C166.895 21.0843 166.505 21.1367 166.072 21.1367C165.421 21.1367 164.869 21.0205 164.418 20.7881C163.967 20.5557 163.625 20.2549 163.393 19.8857C163.16 19.5166 163.044 19.127 163.044 18.7168H164.315C164.334 19.0632 164.434 19.3389 164.616 19.5439C164.799 19.7445 165.022 19.888 165.286 19.9746C165.55 20.0566 165.812 20.0977 166.072 20.0977C166.419 20.0977 166.708 20.0521 166.94 19.9609C167.177 19.8698 167.357 19.7445 167.48 19.585C167.604 19.4255 167.665 19.2432 167.665 19.0381ZM173.688 13.6035V14.5742H169.688V13.6035H173.688ZM171.042 11.8057H172.307V19.168C172.307 19.4186 172.345 19.6077 172.423 19.7354C172.5 19.863 172.601 19.9473 172.724 19.9883C172.847 20.0293 172.979 20.0498 173.12 20.0498C173.225 20.0498 173.334 20.0407 173.448 20.0225C173.567 19.9997 173.656 19.9814 173.715 19.9678L173.722 21C173.621 21.0319 173.489 21.0615 173.325 21.0889C173.166 21.1208 172.972 21.1367 172.744 21.1367C172.434 21.1367 172.149 21.0752 171.89 20.9521C171.63 20.8291 171.423 20.624 171.268 20.3369C171.117 20.0452 171.042 19.6533 171.042 19.1611V11.8057ZM178.24 21.1367C177.725 21.1367 177.258 21.0501 176.839 20.877C176.424 20.6992 176.066 20.4508 175.766 20.1318C175.469 19.8128 175.242 19.4346 175.082 18.9971C174.923 18.5596 174.843 18.0811 174.843 17.5615V17.2744C174.843 16.6729 174.932 16.1374 175.109 15.668C175.287 15.194 175.529 14.793 175.834 14.4648C176.139 14.1367 176.486 13.8883 176.873 13.7197C177.26 13.5511 177.661 13.4668 178.076 13.4668C178.605 13.4668 179.061 13.5579 179.443 13.7402C179.831 13.9225 180.147 14.1777 180.394 14.5059C180.64 14.8294 180.822 15.2122 180.94 15.6543C181.059 16.0918 181.118 16.5703 181.118 17.0898V17.6572H175.595V16.625H179.854V16.5293C179.835 16.2012 179.767 15.8822 179.648 15.5723C179.535 15.2624 179.352 15.0072 179.102 14.8066C178.851 14.6061 178.509 14.5059 178.076 14.5059C177.789 14.5059 177.525 14.5674 177.283 14.6904C177.042 14.8089 176.834 14.9867 176.661 15.2236C176.488 15.4606 176.354 15.75 176.258 16.0918C176.162 16.4336 176.114 16.8278 176.114 17.2744V17.5615C176.114 17.9124 176.162 18.2428 176.258 18.5527C176.358 18.8581 176.502 19.127 176.688 19.3594C176.88 19.5918 177.11 19.7741 177.379 19.9062C177.652 20.0384 177.962 20.1045 178.309 20.1045C178.755 20.1045 179.133 20.0133 179.443 19.8311C179.753 19.6488 180.024 19.4049 180.257 19.0996L181.022 19.708C180.863 19.9495 180.66 20.1797 180.414 20.3984C180.168 20.6172 179.865 20.7949 179.505 20.9316C179.149 21.0684 178.728 21.1367 178.24 21.1367ZM183.859 14.7656V21H182.595V13.6035H183.825L183.859 14.7656ZM186.17 13.5625L186.163 14.7383C186.058 14.7155 185.958 14.7018 185.862 14.6973C185.771 14.6882 185.666 14.6836 185.548 14.6836C185.256 14.6836 184.999 14.7292 184.775 14.8203C184.552 14.9115 184.363 15.0391 184.208 15.2031C184.053 15.3672 183.93 15.5632 183.839 15.791C183.752 16.0143 183.695 16.2604 183.668 16.5293L183.312 16.7344C183.312 16.2878 183.356 15.8685 183.442 15.4766C183.534 15.0846 183.673 14.7383 183.859 14.4375C184.046 14.1322 184.283 13.8952 184.57 13.7266C184.862 13.5534 185.208 13.4668 185.609 13.4668C185.701 13.4668 185.805 13.4782 185.924 13.501C186.042 13.5192 186.124 13.5397 186.17 13.5625ZM191.878 19.5645V10.5H193.149V21H191.987L191.878 19.5645ZM186.901 17.3838V17.2402C186.901 16.6751 186.97 16.1624 187.106 15.7021C187.248 15.2373 187.446 14.8385 187.701 14.5059C187.961 14.1732 188.269 13.918 188.624 13.7402C188.984 13.5579 189.385 13.4668 189.827 13.4668C190.292 13.4668 190.698 13.5488 191.044 13.7129C191.395 13.8724 191.691 14.1071 191.933 14.417C192.179 14.7223 192.372 15.0915 192.514 15.5244C192.655 15.9574 192.753 16.4473 192.808 16.9941V17.623C192.757 18.1654 192.66 18.653 192.514 19.0859C192.372 19.5189 192.179 19.888 191.933 20.1934C191.691 20.4987 191.395 20.7334 191.044 20.8975C190.693 21.057 190.283 21.1367 189.813 21.1367C189.381 21.1367 188.984 21.0433 188.624 20.8564C188.269 20.6696 187.961 20.4076 187.701 20.0703C187.446 19.7331 187.248 19.3366 187.106 18.8809C186.97 18.4206 186.901 17.9215 186.901 17.3838ZM188.173 17.2402V17.3838C188.173 17.7529 188.209 18.0993 188.282 18.4229C188.36 18.7464 188.478 19.0312 188.638 19.2773C188.797 19.5234 189 19.7171 189.246 19.8584C189.492 19.9951 189.786 20.0635 190.128 20.0635C190.547 20.0635 190.891 19.9746 191.16 19.7969C191.434 19.6191 191.652 19.3844 191.816 19.0928C191.98 18.8011 192.108 18.4844 192.199 18.1426V16.4951C192.145 16.2445 192.065 16.0029 191.96 15.7705C191.86 15.5335 191.728 15.3239 191.563 15.1416C191.404 14.9548 191.206 14.8066 190.969 14.6973C190.736 14.5879 190.461 14.5332 190.142 14.5332C189.795 14.5332 189.497 14.6061 189.246 14.752C189 14.8932 188.797 15.0892 188.638 15.3398C188.478 15.5859 188.36 15.873 188.282 16.2012C188.209 16.5247 188.173 16.8711 188.173 17.2402ZM199.479 19.7354V15.9277C199.479 15.6361 199.42 15.3831 199.302 15.1689C199.188 14.9502 199.015 14.7816 198.782 14.6631C198.55 14.5446 198.263 14.4854 197.921 14.4854C197.602 14.4854 197.322 14.54 197.08 14.6494C196.843 14.7588 196.656 14.9023 196.52 15.0801C196.387 15.2578 196.321 15.4492 196.321 15.6543H195.057C195.057 15.39 195.125 15.1279 195.262 14.8682C195.398 14.6084 195.594 14.3737 195.85 14.1641C196.109 13.9499 196.419 13.7812 196.779 13.6582C197.144 13.5306 197.549 13.4668 197.996 13.4668C198.534 13.4668 199.008 13.5579 199.418 13.7402C199.833 13.9225 200.156 14.1982 200.389 14.5674C200.626 14.932 200.744 15.39 200.744 15.9414V19.3867C200.744 19.6328 200.765 19.8949 200.806 20.1729C200.851 20.4508 200.917 20.6901 201.004 20.8906V21H199.685C199.621 20.8542 199.571 20.6605 199.534 20.4189C199.498 20.1729 199.479 19.945 199.479 19.7354ZM199.698 16.5156L199.712 17.4043H198.434C198.074 17.4043 197.752 17.4339 197.47 17.4932C197.187 17.5479 196.95 17.6322 196.759 17.7461C196.567 17.86 196.422 18.0036 196.321 18.1768C196.221 18.3454 196.171 18.5436 196.171 18.7715C196.171 19.0039 196.223 19.2158 196.328 19.4072C196.433 19.5986 196.59 19.7513 196.8 19.8652C197.014 19.9746 197.276 20.0293 197.586 20.0293C197.973 20.0293 198.315 19.9473 198.611 19.7832C198.908 19.6191 199.142 19.4186 199.315 19.1816C199.493 18.9447 199.589 18.7145 199.603 18.4912L200.143 19.0996C200.111 19.291 200.024 19.5029 199.883 19.7354C199.742 19.9678 199.552 20.1911 199.315 20.4053C199.083 20.6149 198.805 20.7904 198.481 20.9316C198.162 21.0684 197.802 21.1367 197.401 21.1367C196.9 21.1367 196.46 21.0387 196.082 20.8428C195.708 20.6468 195.417 20.3848 195.207 20.0566C195.002 19.724 194.899 19.3525 194.899 18.9424C194.899 18.5459 194.977 18.1973 195.132 17.8965C195.287 17.5911 195.51 17.3382 195.802 17.1377C196.093 16.9326 196.444 16.7777 196.854 16.6729C197.265 16.568 197.723 16.5156 198.229 16.5156H199.698ZM204.716 20.2344L206.773 13.6035H208.127L205.16 22.1416C205.092 22.3239 205.001 22.5199 204.887 22.7295C204.777 22.9437 204.636 23.1465 204.463 23.3379C204.29 23.5293 204.08 23.6842 203.834 23.8027C203.592 23.9258 203.303 23.9873 202.966 23.9873C202.866 23.9873 202.738 23.9736 202.583 23.9463C202.428 23.9189 202.319 23.8962 202.255 23.8779L202.248 22.8525C202.285 22.8571 202.341 22.8617 202.419 22.8662C202.501 22.8753 202.558 22.8799 202.59 22.8799C202.877 22.8799 203.121 22.8411 203.321 22.7637C203.522 22.6908 203.69 22.5654 203.827 22.3877C203.968 22.2145 204.089 21.9753 204.189 21.6699L204.716 20.2344ZM203.205 13.6035L205.126 19.3457L205.454 20.6787L204.545 21.1436L201.824 13.6035H203.205Z" fill="#3D2846"/>
</svg>
