<svg width="112" height="32" viewBox="0 0 112 32" fill="none" xmlns="http://www.w3.org/2000/svg">
<g clip-path="url(#clip0_2214_121)">
<rect width="78" height="32" rx="16" fill="#A6C8FF"/>
<path d="M37.793 10.5H39.0645V19.5645L38.9551 21H37.793V10.5ZM44.0615 17.2402V17.3838C44.0615 17.9215 43.9977 18.4206 43.8701 18.8809C43.7425 19.3366 43.5557 19.7331 43.3096 20.0703C43.0635 20.4076 42.7627 20.6696 42.4072 20.8564C42.0518 21.0433 41.6439 21.1367 41.1836 21.1367C40.7142 21.1367 40.3018 21.057 39.9463 20.8975C39.5954 20.7334 39.2992 20.4987 39.0576 20.1934C38.8161 19.888 38.6224 19.5189 38.4766 19.0859C38.3353 18.653 38.2373 18.1654 38.1826 17.623V16.9941C38.2373 16.4473 38.3353 15.9574 38.4766 15.5244C38.6224 15.0915 38.8161 14.7223 39.0576 14.417C39.2992 14.1071 39.5954 13.8724 39.9463 13.7129C40.2972 13.5488 40.7051 13.4668 41.1699 13.4668C41.6348 13.4668 42.0472 13.5579 42.4072 13.7402C42.7673 13.918 43.068 14.1732 43.3096 14.5059C43.5557 14.8385 43.7425 15.2373 43.8701 15.7021C43.9977 16.1624 44.0615 16.6751 44.0615 17.2402ZM42.79 17.3838V17.2402C42.79 16.8711 42.7559 16.5247 42.6875 16.2012C42.6191 15.873 42.5098 15.5859 42.3594 15.3398C42.209 15.0892 42.0107 14.8932 41.7646 14.752C41.5186 14.6061 41.2155 14.5332 40.8555 14.5332C40.5365 14.5332 40.2585 14.5879 40.0215 14.6973C39.7891 14.8066 39.5908 14.9548 39.4268 15.1416C39.2627 15.3239 39.1283 15.5335 39.0234 15.7705C38.9232 16.0029 38.848 16.2445 38.7979 16.4951V18.1426C38.8708 18.4616 38.9893 18.7692 39.1533 19.0654C39.3219 19.3571 39.5452 19.5964 39.8232 19.7832C40.1058 19.9701 40.4544 20.0635 40.8691 20.0635C41.2109 20.0635 41.5026 19.9951 41.7441 19.8584C41.9902 19.7171 42.1885 19.5234 42.3389 19.2773C42.4938 19.0312 42.6077 18.7464 42.6807 18.4229C42.7536 18.0993 42.79 17.7529 42.79 17.3838ZM50.1865 19.291V13.6035H51.458V21H50.248L50.1865 19.291ZM50.4258 17.7324L50.9521 17.7188C50.9521 18.2109 50.8997 18.6667 50.7949 19.0859C50.6947 19.5007 50.5306 19.8607 50.3027 20.166C50.0749 20.4714 49.7764 20.7106 49.4072 20.8838C49.0381 21.0524 48.5892 21.1367 48.0605 21.1367C47.7005 21.1367 47.3701 21.0843 47.0693 20.9795C46.7731 20.8747 46.5179 20.7129 46.3037 20.4941C46.0895 20.2754 45.9232 19.9906 45.8047 19.6396C45.6908 19.2887 45.6338 18.8672 45.6338 18.375V13.6035H46.8984V18.3887C46.8984 18.7214 46.9349 18.9971 47.0078 19.2158C47.0853 19.43 47.1878 19.6009 47.3154 19.7285C47.4476 19.8516 47.5934 19.9382 47.7529 19.9883C47.917 20.0384 48.0856 20.0635 48.2588 20.0635C48.7965 20.0635 49.2227 19.9609 49.5371 19.7559C49.8516 19.5462 50.0771 19.266 50.2139 18.915C50.3551 18.5596 50.4258 18.1654 50.4258 17.7324ZM58.1777 13.6035H59.3262V20.8428C59.3262 21.4945 59.194 22.0505 58.9297 22.5107C58.6654 22.971 58.2962 23.3197 57.8223 23.5566C57.3529 23.7982 56.8105 23.9189 56.1953 23.9189C55.9401 23.9189 55.6393 23.8779 55.293 23.7959C54.9512 23.7184 54.6139 23.584 54.2812 23.3926C53.9531 23.2057 53.6774 22.9528 53.4541 22.6338L54.1172 21.8818C54.4271 22.2555 54.7507 22.5153 55.0879 22.6611C55.4297 22.807 55.7669 22.8799 56.0996 22.8799C56.5007 22.8799 56.847 22.8047 57.1387 22.6543C57.4303 22.5039 57.6559 22.2806 57.8154 21.9844C57.9795 21.6927 58.0615 21.3327 58.0615 20.9043V15.2305L58.1777 13.6035ZM53.085 17.3838V17.2402C53.085 16.6751 53.151 16.1624 53.2832 15.7021C53.4199 15.2373 53.6136 14.8385 53.8643 14.5059C54.1195 14.1732 54.4271 13.918 54.7871 13.7402C55.1471 13.5579 55.5527 13.4668 56.0039 13.4668C56.4688 13.4668 56.8743 13.5488 57.2207 13.7129C57.5716 13.8724 57.8678 14.1071 58.1094 14.417C58.3555 14.7223 58.5492 15.0915 58.6904 15.5244C58.8317 15.9574 58.9297 16.4473 58.9844 16.9941V17.623C58.9342 18.1654 58.8363 18.653 58.6904 19.0859C58.5492 19.5189 58.3555 19.888 58.1094 20.1934C57.8678 20.4987 57.5716 20.7334 57.2207 20.8975C56.8698 21.057 56.4596 21.1367 55.9902 21.1367C55.5482 21.1367 55.1471 21.0433 54.7871 20.8564C54.4316 20.6696 54.1263 20.4076 53.8711 20.0703C53.6159 19.7331 53.4199 19.3366 53.2832 18.8809C53.151 18.4206 53.085 17.9215 53.085 17.3838ZM54.3496 17.2402V17.3838C54.3496 17.7529 54.3861 18.0993 54.459 18.4229C54.5365 18.7464 54.6527 19.0312 54.8076 19.2773C54.9671 19.5234 55.1699 19.7171 55.416 19.8584C55.6621 19.9951 55.9561 20.0635 56.2979 20.0635C56.7171 20.0635 57.0635 19.9746 57.3369 19.7969C57.6104 19.6191 57.8268 19.3844 57.9863 19.0928C58.1504 18.8011 58.278 18.4844 58.3691 18.1426V16.4951C58.319 16.2445 58.2415 16.0029 58.1367 15.7705C58.0365 15.5335 57.9043 15.3239 57.7402 15.1416C57.5807 14.9548 57.3825 14.8066 57.1455 14.6973C56.9085 14.5879 56.6305 14.5332 56.3115 14.5332C55.9652 14.5332 55.6667 14.6061 55.416 14.752C55.1699 14.8932 54.9671 15.0892 54.8076 15.3398C54.6527 15.5859 54.5365 15.873 54.459 16.2012C54.3861 16.5247 54.3496 16.8711 54.3496 17.2402ZM65.5537 19.0381C65.5537 18.8558 65.5127 18.6872 65.4307 18.5322C65.3532 18.3727 65.1914 18.2292 64.9453 18.1016C64.7038 17.9694 64.3392 17.8555 63.8516 17.7598C63.4414 17.6732 63.07 17.5706 62.7373 17.4521C62.4092 17.3337 62.1289 17.1901 61.8965 17.0215C61.6686 16.8529 61.4932 16.6546 61.3701 16.4268C61.2471 16.1989 61.1855 15.9323 61.1855 15.627C61.1855 15.3353 61.2493 15.0596 61.377 14.7998C61.5091 14.54 61.6937 14.3099 61.9307 14.1094C62.1722 13.9089 62.4616 13.7516 62.7988 13.6377C63.1361 13.5238 63.512 13.4668 63.9268 13.4668C64.5192 13.4668 65.0251 13.5716 65.4443 13.7812C65.8636 13.9909 66.1849 14.2712 66.4082 14.6221C66.6315 14.9684 66.7432 15.3535 66.7432 15.7773H65.4785C65.4785 15.5723 65.417 15.374 65.2939 15.1826C65.1755 14.9867 65 14.8249 64.7676 14.6973C64.5397 14.5697 64.2594 14.5059 63.9268 14.5059C63.5758 14.5059 63.291 14.5605 63.0723 14.6699C62.8581 14.7747 62.7008 14.9092 62.6006 15.0732C62.5049 15.2373 62.457 15.4105 62.457 15.5928C62.457 15.7295 62.4798 15.8525 62.5254 15.9619C62.5755 16.0667 62.6621 16.1647 62.7852 16.2559C62.9082 16.3424 63.0814 16.4245 63.3047 16.502C63.528 16.5794 63.8128 16.6569 64.1592 16.7344C64.7653 16.8711 65.2643 17.0352 65.6562 17.2266C66.0482 17.418 66.3398 17.6527 66.5312 17.9307C66.7227 18.2087 66.8184 18.5459 66.8184 18.9424C66.8184 19.266 66.75 19.5622 66.6133 19.8311C66.4811 20.0999 66.2874 20.3324 66.0322 20.5283C65.7816 20.7197 65.4808 20.8701 65.1299 20.9795C64.7835 21.0843 64.3939 21.1367 63.9609 21.1367C63.3092 21.1367 62.7578 21.0205 62.3066 20.7881C61.8555 20.5557 61.5137 20.2549 61.2812 19.8857C61.0488 19.5166 60.9326 19.127 60.9326 18.7168H62.2041C62.2223 19.0632 62.3226 19.3389 62.5049 19.5439C62.6872 19.7445 62.9105 19.888 63.1748 19.9746C63.4391 20.0566 63.7012 20.0977 63.9609 20.0977C64.3073 20.0977 64.5967 20.0521 64.8291 19.9609C65.0661 19.8698 65.2461 19.7445 65.3691 19.585C65.4922 19.4255 65.5537 19.2432 65.5537 19.0381Z" fill="#01315E"/>
<rect x="80" width="32" height="32" rx="8" fill="#3D4758"/>
<mask id="mask0_2214_121" style="mask-type:alpha" maskUnits="userSpaceOnUse" x="86" y="6" width="20" height="20">
<rect x="86" y="6" width="20" height="20" fill="#D4E3FF"/>
</mask>
<g mask="url(#mask0_2214_121)">
<path d="M96 22.5833C95.2415 22.5833 94.5567 22.3763 93.9456 21.9623C93.3345 21.5482 92.906 20.9914 92.6602 20.2916H90.9583C90.8049 20.2916 90.6763 20.2401 90.5725 20.137C90.4686 20.034 90.4167 19.9064 90.4167 19.7541C90.4167 19.6018 90.4686 19.4727 90.5725 19.367C90.6763 19.2612 90.8049 19.2083 90.9583 19.2083H92.4808C92.4381 18.9359 92.4167 18.66 92.4167 18.3804V17.5416H90.9583C90.8049 17.5416 90.6763 17.4901 90.5725 17.387C90.4686 17.284 90.4167 17.1564 90.4167 17.0041C90.4167 16.8518 90.4686 16.7227 90.5725 16.617C90.6763 16.5112 90.8049 16.4583 90.9583 16.4583H92.4167C92.4167 16.1752 92.414 15.8934 92.4088 15.6129C92.4033 15.3325 92.4274 15.0587 92.4808 14.7916H90.9583C90.8049 14.7916 90.6763 14.7401 90.5725 14.637C90.4686 14.534 90.4167 14.4064 90.4167 14.2541C90.4167 14.1018 90.4686 13.9727 90.5725 13.867C90.6763 13.7612 90.8049 13.7083 90.9583 13.7083H92.6602C92.7767 13.3258 92.9733 12.9868 93.25 12.6912C93.5265 12.3957 93.8433 12.146 94.2004 11.9423L92.8094 10.5593C92.694 10.4466 92.6397 10.3195 92.6467 10.1783C92.6536 10.037 92.7126 9.91094 92.8235 9.79996C92.938 9.68552 93.0604 9.6283 93.1906 9.6283C93.321 9.6283 93.444 9.68594 93.5594 9.80121L95.279 11.5C95.5227 11.4466 95.7687 11.42 96.0169 11.42C96.2652 11.42 96.5122 11.4466 96.7579 11.5L98.4567 9.80934C98.5694 9.69392 98.6976 9.63621 98.8413 9.63621C98.9849 9.63621 99.1098 9.6917 99.216 9.80267C99.3305 9.91712 99.3877 10.0429 99.3877 10.1802C99.3877 10.3175 99.3301 10.4439 99.2148 10.5593L97.8317 11.9423C98.1832 12.1485 98.4864 12.4001 98.7413 12.697C98.996 12.9941 99.1955 13.3312 99.3398 13.7083H101.042C101.195 13.7083 101.324 13.7598 101.428 13.8629C101.531 13.9659 101.583 14.0936 101.583 14.2458C101.583 14.3982 101.531 14.5272 101.428 14.6329C101.324 14.7387 101.195 14.7916 101.042 14.7916H99.5192C99.5726 15.0587 99.5967 15.3329 99.5913 15.6143C99.586 15.8956 99.5833 16.1769 99.5833 16.4583H101.042C101.195 16.4583 101.324 16.5098 101.428 16.6129C101.531 16.7159 101.583 16.8436 101.583 16.9958C101.583 17.1482 101.531 17.2772 101.428 17.3829C101.324 17.4887 101.195 17.5416 101.042 17.5416H99.5833V18.3789C99.5833 18.6595 99.5619 18.9359 99.5192 19.2083H101.042C101.195 19.2083 101.324 19.2598 101.428 19.3629C101.531 19.4659 101.583 19.5936 101.583 19.7458C101.583 19.8982 101.531 20.0272 101.428 20.1329C101.324 20.2387 101.195 20.2916 101.042 20.2916H99.3398C99.094 20.9914 98.6655 21.5482 98.0544 21.9623C97.4433 22.3763 96.7585 22.5833 96 22.5833ZM96 21.5C96.676 21.5 97.2547 21.2569 97.7363 20.7708C98.2176 20.2847 98.4722 19.6944 98.5 19V15C98.5278 14.3055 98.2951 13.7152 97.8021 13.2291C97.309 12.743 96.7118 12.5 96.0104 12.5C95.309 12.5 94.7188 12.743 94.2396 13.2291C93.7604 13.7152 93.5139 14.3055 93.5 15V19C93.4861 19.6944 93.7222 20.2847 94.2083 20.7708C94.6944 21.2569 95.2917 21.5 96 21.5ZM95.1681 18.7916H96.8246C96.9776 18.7916 97.1071 18.7401 97.2129 18.637C97.3189 18.534 97.3719 18.4064 97.3719 18.2541C97.3719 18.1018 97.3201 17.9727 97.2167 17.867C97.1132 17.7612 96.9849 17.7083 96.8319 17.7083H95.1754C95.0224 17.7083 94.8929 17.7598 94.7871 17.8629C94.6811 17.9659 94.6281 18.0936 94.6281 18.2458C94.6281 18.3982 94.6799 18.5272 94.7833 18.6329C94.8868 18.7387 95.0151 18.7916 95.1681 18.7916ZM95.1681 16.2916H96.8246C96.9776 16.2916 97.1071 16.2401 97.2129 16.137C97.3189 16.034 97.3719 15.9064 97.3719 15.7541C97.3719 15.6018 97.3201 15.4727 97.2167 15.367C97.1132 15.2612 96.9849 15.2083 96.8319 15.2083H95.1754C95.0224 15.2083 94.8929 15.2598 94.7871 15.3629C94.6811 15.4659 94.6281 15.5936 94.6281 15.7458C94.6281 15.8982 94.6799 16.0272 94.7833 16.1329C94.8868 16.2387 95.0151 16.2916 95.1681 16.2916Z" fill="#D8E3F8"/>
</g>
<path d="M15.2927 2.91408C16.0068 2.37344 16.9932 2.37344 17.7073 2.91408L18.5787 3.57385C19.0413 3.92413 19.6332 4.05621 20.2009 3.93582L21.2904 3.70475C22.1758 3.51698 23.0769 3.94716 23.4876 4.75365L23.9408 5.64375C24.2098 6.17199 24.6993 6.55367 25.2772 6.68583L26.2959 6.9188C27.199 7.12534 27.8421 7.92511 27.8499 8.85153L27.8576 9.75162C27.8627 10.3606 28.145 10.934 28.6245 11.3094L29.3619 11.8868C30.1052 12.4687 30.3403 13.491 29.9261 14.3392L29.5436 15.1223C29.2731 15.6762 29.2731 16.3238 29.5436 16.8777L29.9261 17.6608C30.3403 18.509 30.1052 19.5313 29.3619 20.1132L28.6245 20.6906C28.145 21.066 27.8627 21.6394 27.8576 22.2484L27.8499 23.1485C27.8421 24.0749 27.199 24.8747 26.2959 25.0812L25.2772 25.3142C24.6993 25.4463 24.2098 25.828 23.9408 26.3562L23.4876 27.2464C23.0769 28.0528 22.1758 28.483 21.2904 28.2952L20.2009 28.0642C19.6332 27.9438 19.0413 28.0759 18.5787 28.4261L17.7073 29.0859C16.9932 29.6266 16.0068 29.6266 15.2927 29.0859L14.4213 28.4261C13.9587 28.0759 13.3668 27.9438 12.7991 28.0642L11.7096 28.2952C10.8242 28.483 9.92314 28.0528 9.51244 27.2464L9.05915 26.3562C8.79015 25.828 8.30068 25.4463 7.72282 25.3142L6.70411 25.0812C5.80097 24.8747 5.15791 24.0749 5.15006 23.1485L5.14244 22.2484C5.13728 21.6394 4.85497 21.066 4.37548 20.6906L3.63806 20.1132C2.89484 19.5313 2.65967 18.509 3.0739 17.6608L3.45635 16.8777C3.72685 16.3238 3.72685 15.6762 3.45635 15.1223L3.0739 14.3392C2.65967 13.491 2.89484 12.4687 3.63806 11.8868L4.37548 11.3094C4.85496 10.934 5.13728 10.3606 5.14244 9.75162L5.15006 8.85153C5.15791 7.92511 5.80097 7.12534 6.70411 6.9188L7.72282 6.68583C8.30068 6.55367 8.79015 6.17199 9.05915 5.64375L9.51244 4.75365C9.92314 3.94716 10.8242 3.51698 11.7096 3.70475L12.7991 3.93582C13.3668 4.05621 13.9587 3.92413 14.4213 3.57385L15.2927 2.91408Z" fill="#224876"/>
<path d="M19.5698 15.6426V17.0518C19.5698 17.8092 19.5021 18.4482 19.3667 18.9688C19.2313 19.4893 19.0366 19.9082 18.7827 20.2256C18.5288 20.543 18.222 20.7736 17.8623 20.9175C17.5068 21.0571 17.1048 21.127 16.6562 21.127C16.3008 21.127 15.9728 21.0825 15.6724 20.9937C15.3719 20.9048 15.1011 20.763 14.8599 20.5684C14.6229 20.3695 14.4198 20.1113 14.2505 19.7939C14.0812 19.4766 13.9521 19.0915 13.8633 18.6387C13.7744 18.1859 13.73 17.6569 13.73 17.0518V15.6426C13.73 14.8851 13.7977 14.2503 13.9331 13.7383C14.0728 13.2262 14.2695 12.8158 14.5234 12.5068C14.7773 12.1937 15.082 11.9694 15.4375 11.834C15.7972 11.6986 16.1992 11.6309 16.6436 11.6309C17.0033 11.6309 17.3333 11.6753 17.6338 11.7642C17.9385 11.8488 18.2093 11.9863 18.4463 12.1768C18.6833 12.363 18.8843 12.6126 19.0493 12.9258C19.2186 13.2347 19.3477 13.6134 19.4365 14.062C19.5254 14.5106 19.5698 15.0374 19.5698 15.6426ZM18.3892 17.2422V15.4458C18.3892 15.0311 18.3638 14.6672 18.313 14.354C18.2664 14.0366 18.1966 13.7658 18.1035 13.5415C18.0104 13.3172 17.8919 13.1353 17.748 12.9956C17.6084 12.856 17.4455 12.7544 17.2593 12.6909C17.0773 12.6232 16.8721 12.5894 16.6436 12.5894C16.3643 12.5894 16.1167 12.6423 15.9009 12.748C15.6851 12.8496 15.5031 13.0125 15.355 13.2368C15.2111 13.4611 15.1011 13.7552 15.0249 14.1191C14.9487 14.4831 14.9106 14.9253 14.9106 15.4458V17.2422C14.9106 17.6569 14.9339 18.0229 14.9805 18.3403C15.0312 18.6577 15.1053 18.9328 15.2026 19.1655C15.3 19.394 15.4185 19.5824 15.5581 19.7305C15.6978 19.8786 15.8586 19.9886 16.0405 20.0605C16.2267 20.1283 16.432 20.1621 16.6562 20.1621C16.944 20.1621 17.1958 20.1071 17.4116 19.9971C17.6274 19.887 17.8073 19.7157 17.9512 19.4829C18.0993 19.2459 18.2093 18.9434 18.2812 18.5752C18.3532 18.2028 18.3892 17.7585 18.3892 17.2422Z" fill="#D4E3FF"/>
</g>
<defs>
<clipPath id="clip0_2214_121">
<rect width="112" height="32" fill="white"/>
</clipPath>
</defs>
</svg>
