<svg width="123" height="32" viewBox="0 0 123 32" fill="none" xmlns="http://www.w3.org/2000/svg">
<rect width="32" height="32" rx="16" fill="#224876"/>
<mask id="mask0_2214_99" style="mask-type:alpha" maskUnits="userSpaceOnUse" x="6" y="6" width="20" height="20">
<rect x="6" y="6" width="20" height="20" fill="#F7D8FF"/>
</mask>
<g mask="url(#mask0_2214_99)">
<path d="M15.8927 9.57204L10.8958 12.4327L16 15.3654L21.1042 12.4327L16.1489 9.57204C16.1063 9.54538 16.0636 9.53204 16.0208 9.53204C15.978 9.53204 15.9353 9.54538 15.8927 9.57204ZM9.41666 19.181V12.8189C9.41666 12.5764 9.47527 12.3541 9.59249 12.1518C9.70971 11.9497 9.87443 11.787 10.0867 11.6635L15.3014 8.63537C15.421 8.56968 15.5353 8.52003 15.6442 8.48642C15.753 8.45267 15.8705 8.43579 15.9967 8.43579C16.1228 8.43579 16.2436 8.45267 16.3592 8.48642C16.4749 8.52003 16.5853 8.57156 16.6906 8.641L21.9133 11.6635C22.1255 11.787 22.2903 11.9497 22.4075 12.1518C22.5247 12.3541 22.5833 12.5764 22.5833 12.8189V15.8941C22.5833 16.0476 22.5318 16.1763 22.4287 16.2802C22.3257 16.3839 22.198 16.4358 22.0458 16.4358C21.8935 16.4358 21.7644 16.3839 21.6587 16.2802C21.5529 16.1763 21.5 16.0476 21.5 15.8941V13.447L16.6489 16.2243C16.436 16.3471 16.2119 16.4085 15.9764 16.4085C15.741 16.4085 15.5187 16.3471 15.3094 16.2243L10.5 13.447V19.1683C10.5 19.2109 10.5107 19.251 10.5321 19.2885C10.5535 19.3259 10.5855 19.3579 10.6281 19.3845L15.4856 22.2083C15.5669 22.2543 15.6323 22.3187 15.6819 22.4016C15.7316 22.4844 15.7564 22.5764 15.7564 22.6777C15.7564 22.8893 15.6675 23.0467 15.4896 23.1498C15.3117 23.2528 15.1324 23.2467 14.9519 23.1314L10.0867 20.3364C9.87582 20.2252 9.71145 20.0666 9.59353 19.8608C9.47561 19.6548 9.41666 19.4282 9.41666 19.181ZM18.4592 24.4318C17.7642 23.7338 17.4167 22.8868 17.4167 21.891C17.4167 20.8953 17.7658 20.05 18.4639 19.355C19.162 18.66 20.0089 18.3125 21.0048 18.3125C22.0005 18.3125 22.8458 18.6616 23.5408 19.3597C24.2358 20.0578 24.5833 20.9048 24.5833 21.9006C24.5833 22.8963 24.2342 23.7416 23.536 24.4366C22.838 25.1316 21.991 25.4791 20.9952 25.4791C19.9995 25.4791 19.1542 25.13 18.4592 24.4318ZM21.4519 21.7308V20.4198C21.4519 20.2993 21.4086 20.1939 21.3221 20.1035C21.2355 20.0131 21.1282 19.9679 21 19.9679C20.8718 19.9679 20.7644 20.0131 20.6779 20.1035C20.5914 20.1939 20.5481 20.2993 20.5481 20.4198V21.8398C20.5481 21.9378 20.5662 22.0259 20.6025 22.1039C20.6389 22.182 20.6897 22.2537 20.755 22.3191L21.8237 23.3877C21.9153 23.4743 22.0226 23.519 22.1456 23.5216C22.2687 23.5243 22.3761 23.4796 22.4679 23.3877C22.5599 23.2959 22.6058 23.1898 22.6058 23.0695C22.6058 22.9491 22.5599 22.8404 22.4679 22.7435L21.4519 21.7308Z" fill="#D4E3FF"/>
</g>
<rect x="34" width="89" height="32" rx="8" fill="#A6C8FF"/>
<path d="M50.3682 19.4893L53.3008 11.0469H54.7295L51.0449 21H50.0264L50.3682 19.4893ZM47.627 11.0469L50.5322 19.4893L50.8945 21H49.876L46.1982 11.0469H47.627ZM58.6465 21.1367C58.1315 21.1367 57.6644 21.0501 57.2451 20.877C56.8304 20.6992 56.4727 20.4508 56.1719 20.1318C55.8757 19.8128 55.6478 19.4346 55.4883 18.9971C55.3288 18.5596 55.249 18.0811 55.249 17.5615V17.2744C55.249 16.6729 55.3379 16.1374 55.5156 15.668C55.6934 15.194 55.9349 14.793 56.2402 14.4648C56.5456 14.1367 56.8919 13.8883 57.2793 13.7197C57.6667 13.5511 58.0677 13.4668 58.4824 13.4668C59.0111 13.4668 59.4668 13.5579 59.8496 13.7402C60.237 13.9225 60.5537 14.1777 60.7998 14.5059C61.0459 14.8294 61.2282 15.2122 61.3467 15.6543C61.4652 16.0918 61.5244 16.5703 61.5244 17.0898V17.6572H56.001V16.625H60.2598V16.5293C60.2415 16.2012 60.1732 15.8822 60.0547 15.5723C59.9408 15.2624 59.7585 15.0072 59.5078 14.8066C59.2572 14.6061 58.9154 14.5059 58.4824 14.5059C58.1953 14.5059 57.931 14.5674 57.6895 14.6904C57.4479 14.8089 57.2406 14.9867 57.0674 15.2236C56.8942 15.4606 56.7598 15.75 56.6641 16.0918C56.5684 16.4336 56.5205 16.8278 56.5205 17.2744V17.5615C56.5205 17.9124 56.5684 18.2428 56.6641 18.5527C56.7643 18.8581 56.9079 19.127 57.0947 19.3594C57.2861 19.5918 57.5163 19.7741 57.7852 19.9062C58.0586 20.0384 58.3685 20.1045 58.7148 20.1045C59.1615 20.1045 59.5397 20.0133 59.8496 19.8311C60.1595 19.6488 60.4307 19.4049 60.6631 19.0996L61.4287 19.708C61.2692 19.9495 61.0664 20.1797 60.8203 20.3984C60.5742 20.6172 60.2712 20.7949 59.9111 20.9316C59.5557 21.0684 59.1341 21.1367 58.6465 21.1367ZM64.2656 14.7656V21H63.001V13.6035H64.2314L64.2656 14.7656ZM66.5762 13.5625L66.5693 14.7383C66.4645 14.7155 66.3643 14.7018 66.2686 14.6973C66.1774 14.6882 66.0726 14.6836 65.9541 14.6836C65.6624 14.6836 65.4049 14.7292 65.1816 14.8203C64.9583 14.9115 64.7692 15.0391 64.6143 15.2031C64.4593 15.3672 64.3363 15.5632 64.2451 15.791C64.1585 16.0143 64.1016 16.2604 64.0742 16.5293L63.7188 16.7344C63.7188 16.2878 63.762 15.8685 63.8486 15.4766C63.9398 15.0846 64.0788 14.7383 64.2656 14.4375C64.4525 14.1322 64.6895 13.8952 64.9766 13.7266C65.2682 13.5534 65.6146 13.4668 66.0156 13.4668C66.1068 13.4668 66.2116 13.4782 66.3301 13.501C66.4486 13.5192 66.5306 13.5397 66.5762 13.5625ZM69.9463 20.2344L72.0039 13.6035H73.3574L70.3906 22.1416C70.3223 22.3239 70.2311 22.5199 70.1172 22.7295C70.0078 22.9437 69.8665 23.1465 69.6934 23.3379C69.5202 23.5293 69.3105 23.6842 69.0645 23.8027C68.8229 23.9258 68.5335 23.9873 68.1963 23.9873C68.096 23.9873 67.9684 23.9736 67.8135 23.9463C67.6585 23.9189 67.5492 23.8962 67.4854 23.8779L67.4785 22.8525C67.515 22.8571 67.5719 22.8617 67.6494 22.8662C67.7314 22.8753 67.7884 22.8799 67.8203 22.8799C68.1074 22.8799 68.3512 22.8411 68.5518 22.7637C68.7523 22.6908 68.9209 22.5654 69.0576 22.3877C69.1989 22.2145 69.3197 21.9753 69.4199 21.6699L69.9463 20.2344ZM68.4355 13.6035L70.3564 19.3457L70.6846 20.6787L69.7754 21.1436L67.0547 13.6035H68.4355ZM81.8477 11.9287L78.5527 21H77.2061L81 11.0469H81.8682L81.8477 11.9287ZM84.6094 21L81.3076 11.9287L81.2871 11.0469H82.1553L85.9629 21H84.6094ZM84.4385 17.3154V18.3955H78.8467V17.3154H84.4385ZM88.4785 10.5V21H87.207V10.5H88.4785ZM91.7734 15.0254V23.8438H90.502V13.6035H91.6641L91.7734 15.0254ZM96.7568 17.2402V17.3838C96.7568 17.9215 96.693 18.4206 96.5654 18.8809C96.4378 19.3366 96.251 19.7331 96.0049 20.0703C95.7633 20.4076 95.4648 20.6696 95.1094 20.8564C94.7539 21.0433 94.346 21.1367 93.8857 21.1367C93.4163 21.1367 93.0016 21.0592 92.6416 20.9043C92.2816 20.7493 91.9762 20.5238 91.7256 20.2275C91.4749 19.9313 91.2744 19.5758 91.124 19.1611C90.9782 18.7464 90.8779 18.2793 90.8232 17.7598V16.9941C90.8779 16.4473 90.9805 15.9574 91.1309 15.5244C91.2812 15.0915 91.4795 14.7223 91.7256 14.417C91.9762 14.1071 92.2793 13.8724 92.6348 13.7129C92.9902 13.5488 93.4004 13.4668 93.8652 13.4668C94.3301 13.4668 94.7425 13.5579 95.1025 13.7402C95.4626 13.918 95.7656 14.1732 96.0117 14.5059C96.2578 14.8385 96.4424 15.2373 96.5654 15.7021C96.693 16.1624 96.7568 16.6751 96.7568 17.2402ZM95.4854 17.3838V17.2402C95.4854 16.8711 95.4466 16.5247 95.3691 16.2012C95.2917 15.873 95.1709 15.5859 95.0068 15.3398C94.8473 15.0892 94.6423 14.8932 94.3916 14.752C94.141 14.6061 93.8424 14.5332 93.4961 14.5332C93.1771 14.5332 92.8991 14.5879 92.6621 14.6973C92.4297 14.8066 92.2314 14.9548 92.0674 15.1416C91.9033 15.3239 91.7689 15.5335 91.6641 15.7705C91.5638 16.0029 91.4886 16.2445 91.4385 16.4951V18.2656C91.5296 18.5846 91.6572 18.8854 91.8213 19.168C91.9854 19.446 92.2041 19.6715 92.4775 19.8447C92.751 20.0133 93.0951 20.0977 93.5098 20.0977C93.8516 20.0977 94.1455 20.027 94.3916 19.8857C94.6423 19.7399 94.8473 19.5417 95.0068 19.291C95.1709 19.0404 95.2917 18.7533 95.3691 18.4297C95.4466 18.1016 95.4854 17.7529 95.4854 17.3838ZM99.6348 10.5V21H98.3701V10.5H99.6348ZM99.334 17.0215L98.8076 17.001C98.8122 16.4951 98.8874 16.028 99.0332 15.5996C99.179 15.1667 99.3841 14.7907 99.6484 14.4717C99.9128 14.1527 100.227 13.9066 100.592 13.7334C100.961 13.5557 101.369 13.4668 101.815 13.4668C102.18 13.4668 102.508 13.5169 102.8 13.6172C103.091 13.7129 103.34 13.8678 103.545 14.082C103.755 14.2962 103.914 14.5742 104.023 14.916C104.133 15.2533 104.188 15.6657 104.188 16.1533V21H102.916V16.1396C102.916 15.7523 102.859 15.4424 102.745 15.21C102.631 14.973 102.465 14.8021 102.246 14.6973C102.027 14.5879 101.758 14.5332 101.439 14.5332C101.125 14.5332 100.838 14.5993 100.578 14.7314C100.323 14.8636 100.102 15.0459 99.915 15.2783C99.7327 15.5107 99.5892 15.7773 99.4844 16.0781C99.3841 16.3743 99.334 16.6888 99.334 17.0215ZM110.442 19.7354V15.9277C110.442 15.6361 110.383 15.3831 110.265 15.1689C110.151 14.9502 109.978 14.7816 109.745 14.6631C109.513 14.5446 109.226 14.4854 108.884 14.4854C108.565 14.4854 108.285 14.54 108.043 14.6494C107.806 14.7588 107.619 14.9023 107.482 15.0801C107.35 15.2578 107.284 15.4492 107.284 15.6543H106.02C106.02 15.39 106.088 15.1279 106.225 14.8682C106.361 14.6084 106.557 14.3737 106.812 14.1641C107.072 13.9499 107.382 13.7812 107.742 13.6582C108.107 13.5306 108.512 13.4668 108.959 13.4668C109.497 13.4668 109.971 13.5579 110.381 13.7402C110.796 13.9225 111.119 14.1982 111.352 14.5674C111.589 14.932 111.707 15.39 111.707 15.9414V19.3867C111.707 19.6328 111.728 19.8949 111.769 20.1729C111.814 20.4508 111.88 20.6901 111.967 20.8906V21H110.647C110.584 20.8542 110.534 20.6605 110.497 20.4189C110.461 20.1729 110.442 19.945 110.442 19.7354ZM110.661 16.5156L110.675 17.4043H109.396C109.036 17.4043 108.715 17.4339 108.433 17.4932C108.15 17.5479 107.913 17.6322 107.722 17.7461C107.53 17.86 107.384 18.0036 107.284 18.1768C107.184 18.3454 107.134 18.5436 107.134 18.7715C107.134 19.0039 107.186 19.2158 107.291 19.4072C107.396 19.5986 107.553 19.7513 107.763 19.8652C107.977 19.9746 108.239 20.0293 108.549 20.0293C108.936 20.0293 109.278 19.9473 109.574 19.7832C109.87 19.6191 110.105 19.4186 110.278 19.1816C110.456 18.9447 110.552 18.7145 110.565 18.4912L111.105 19.0996C111.074 19.291 110.987 19.5029 110.846 19.7354C110.704 19.9678 110.515 20.1911 110.278 20.4053C110.046 20.6149 109.768 20.7904 109.444 20.9316C109.125 21.0684 108.765 21.1367 108.364 21.1367C107.863 21.1367 107.423 21.0387 107.045 20.8428C106.671 20.6468 106.38 20.3848 106.17 20.0566C105.965 19.724 105.862 19.3525 105.862 18.9424C105.862 18.5459 105.94 18.1973 106.095 17.8965C106.25 17.5911 106.473 17.3382 106.765 17.1377C107.056 16.9326 107.407 16.7777 107.817 16.6729C108.228 16.568 108.686 16.5156 109.191 16.5156H110.661Z" fill="#01315E"/>
</svg>
