<svg width="428" height="36" viewBox="0 0 428 36" fill="none" xmlns="http://www.w3.org/2000/svg">
<path d="M424.42 27.4529C423.635 27.4529 422.911 27.2627 422.245 26.8824C421.603 26.4784 421.08 25.9554 420.676 25.3137C420.296 24.6482 420.106 23.9232 420.106 23.1388V0H423.029V23.1388C423.029 23.5191 423.16 23.8519 423.422 24.1371C423.707 24.3986 424.04 24.5293 424.42 24.5293H427.914V27.4529H424.42Z" fill="#0D9AF2"/>
<path d="M400.013 27.4528C399.228 27.4528 398.503 27.2627 397.838 26.8824C397.196 26.4783 396.673 25.9554 396.269 25.3137C395.889 24.6481 395.699 23.9232 395.699 23.1388V15.6517H413.81V11.0881C413.81 10.7078 413.668 10.3869 413.383 10.1254C413.121 9.84021 412.8 9.6976 412.42 9.6976H395.699V6.77405H412.42C413.228 6.77405 413.953 6.97608 414.595 7.38015C415.26 7.76045 415.783 8.28336 416.164 8.94889C416.568 9.59064 416.77 10.3037 416.77 11.0881V27.4528H400.013ZM400.013 24.5293H413.81V18.5752H398.622V23.1388C398.622 23.5191 398.753 23.8519 399.014 24.1371C399.3 24.3986 399.632 24.5293 400.013 24.5293Z" fill="#0D9AF2"/>
<path d="M375.187 27.4528C374.403 27.4528 373.678 27.2627 373.012 26.8824C372.37 26.4783 371.847 25.9554 371.443 25.3137C371.063 24.6481 370.873 23.9232 370.873 23.1388V11.0881C370.873 10.3037 371.063 9.59064 371.443 8.94889C371.847 8.28336 372.37 7.76045 373.012 7.38015C373.678 6.97608 374.403 6.77405 375.187 6.77405H391.873V9.6976H375.187C374.807 9.6976 374.474 9.84021 374.189 10.1254C373.927 10.3869 373.796 10.7078 373.796 11.0881V23.1388C373.796 23.5191 373.927 23.8519 374.189 24.1371C374.474 24.3986 374.807 24.5293 375.187 24.5293H391.944V27.4528H375.187Z" fill="#0D9AF2"/>
<path d="M364.015 27.4529V6.77409H366.938V27.4529H364.015ZM364.015 2.92355V0H366.938V2.92355H364.015Z" fill="#0D9AF2"/>
<path d="M343.1 35.6174V32.6582H356.007C356.387 32.6582 356.708 32.5156 356.969 32.2304C357.254 31.9689 357.397 31.648 357.397 31.2677V27.4528H343.599C342.815 27.4528 342.09 27.2627 341.424 26.8824C340.783 26.4783 340.26 25.9554 339.856 25.3137C339.475 24.6481 339.285 23.9232 339.285 23.1388V11.0881C339.285 10.3037 339.475 9.59064 339.856 8.94889C340.26 8.28336 340.783 7.76045 341.424 7.38015C342.09 6.97608 342.815 6.77405 343.599 6.77405H356.007C356.815 6.77405 357.54 6.97608 358.181 7.38015C358.847 7.76045 359.37 8.28336 359.75 8.94889C360.13 9.59064 360.321 10.3037 360.321 11.0881V31.2677C360.321 32.0759 360.13 32.8008 359.75 33.4426C359.37 34.1081 358.847 34.631 358.181 35.0113C357.54 35.4154 356.815 35.6174 356.007 35.6174H343.1ZM343.599 24.5293H356.007C356.387 24.5293 356.708 24.3986 356.969 24.1371C357.254 23.8519 357.397 23.5191 357.397 23.1388V11.0881C357.397 10.7078 357.254 10.3869 356.969 10.1254C356.708 9.84021 356.387 9.6976 356.007 9.6976H343.599C343.219 9.6976 342.886 9.84021 342.601 10.1254C342.34 10.3869 342.209 10.7078 342.209 11.0881V23.1388C342.209 23.5191 342.34 23.8519 342.601 24.1371C342.886 24.3986 343.219 24.5293 343.599 24.5293Z" fill="#0D9AF2"/>
<path d="M319.27 27.4528C318.486 27.4528 317.761 27.2627 317.095 26.8824C316.453 26.4783 315.931 25.9554 315.526 25.3137C315.146 24.6481 314.956 23.9232 314.956 23.1388V11.0881C314.956 10.3037 315.146 9.59064 315.526 8.94889C315.931 8.28336 316.453 7.76045 317.095 7.38015C317.761 6.97608 318.486 6.77405 319.27 6.77405H331.677C332.485 6.77405 333.21 6.97608 333.852 7.38015C334.518 7.76045 335.041 8.28336 335.421 8.94889C335.825 9.59064 336.027 10.3037 336.027 11.0881V23.1388C336.027 23.9232 335.825 24.6481 335.421 25.3137C335.041 25.9554 334.518 26.4783 333.852 26.8824C333.21 27.2627 332.485 27.4528 331.677 27.4528H319.27ZM319.27 24.5293H331.677C332.058 24.5293 332.379 24.3986 332.64 24.1371C332.925 23.8519 333.068 23.5191 333.068 23.1388V11.0881C333.068 10.7078 332.925 10.3869 332.64 10.1254C332.379 9.84021 332.058 9.6976 331.677 9.6976H319.27C318.89 9.6976 318.557 9.84021 318.272 10.1254C318.01 10.3869 317.88 10.7078 317.88 11.0881V23.1388C317.88 23.5191 318.01 23.8519 318.272 24.1371C318.557 24.3986 318.89 24.5293 319.27 24.5293Z" fill="#0D9AF2"/>
<path d="M287.386 27.4528V1.74695H290.274V24.5649H313.056V27.4528H287.386Z" fill="#0D9AF2"/>
<path d="M256.545 35.6531V32.6939H269.451C269.831 32.6939 270.152 32.5513 270.414 32.266C270.699 32.0046 270.841 31.6837 270.841 31.3034V27.4529H257.044C256.259 27.4529 255.534 27.2627 254.869 26.8824C254.227 26.4784 253.704 25.9555 253.3 25.3137C252.92 24.6482 252.73 23.9232 252.73 23.1389V6.8454H255.653V23.1389C255.653 23.5192 255.784 23.8519 256.045 24.1371C256.331 24.3986 256.663 24.5293 257.044 24.5293H269.451C269.831 24.5293 270.152 24.3986 270.414 24.1371C270.699 23.8519 270.841 23.5192 270.841 23.1389V6.8454H273.765V31.3034C273.765 32.1116 273.575 32.8365 273.195 33.4783C272.814 34.1438 272.291 34.6667 271.626 35.047C270.984 35.4511 270.259 35.6531 269.451 35.6531H256.545Z" fill="#0D9AF2"/>
<path d="M246.642 27.4529C245.858 27.4529 245.133 27.2627 244.467 26.8824C243.825 26.4784 243.302 25.9554 242.898 25.3137C242.518 24.6482 242.328 23.9232 242.328 23.1388V0H245.251V23.1388C245.251 23.5191 245.382 23.8519 245.644 24.1371C245.929 24.3986 246.262 24.5293 246.642 24.5293H250.136V27.4529H246.642Z" fill="#0D9AF2"/>
<path d="M218.619 27.4529V0H221.542V6.77409H235.376C236.16 6.77409 236.873 6.97612 237.515 7.38019C238.18 7.76049 238.703 8.2834 239.084 8.94892C239.488 9.59068 239.69 10.3037 239.69 11.0881V23.1388C239.69 23.9232 239.488 24.6482 239.084 25.3137C238.703 25.9554 238.18 26.4784 237.515 26.8824C236.873 27.2627 236.16 27.4529 235.376 27.4529H218.619ZM222.969 24.5293H235.376C235.756 24.5293 236.077 24.3986 236.338 24.1371C236.624 23.8519 236.766 23.5191 236.766 23.1388V11.0881C236.766 10.7078 236.624 10.3869 236.338 10.1255C236.077 9.84025 235.756 9.69764 235.376 9.69764H222.969C222.588 9.69764 222.255 9.84025 221.97 10.1255C221.685 10.3869 221.542 10.7078 221.542 11.0881V23.1388C221.542 23.5191 221.685 23.8519 221.97 24.1371C222.255 24.3986 222.588 24.5293 222.969 24.5293Z" fill="#0D9AF2"/>
<path d="M199.012 27.4528C198.227 27.4528 197.502 27.2627 196.837 26.8824C196.195 26.4783 195.672 25.9554 195.268 25.3137C194.888 24.6481 194.698 23.9232 194.698 23.1388V15.6517H212.809V11.0881C212.809 10.7078 212.667 10.3869 212.381 10.1254C212.12 9.84021 211.799 9.6976 211.419 9.6976H194.698V6.77405H211.419C212.227 6.77405 212.952 6.97608 213.594 7.38015C214.259 7.76045 214.782 8.28336 215.162 8.94889C215.566 9.59064 215.768 10.3037 215.768 11.0881V27.4528H199.012ZM199.012 24.5293H212.809V18.5752H197.621V23.1388C197.621 23.5191 197.752 23.8519 198.013 24.1371C198.298 24.3986 198.631 24.5293 199.012 24.5293Z" fill="#0D9AF2"/>
<path d="M169.944 27.4528V6.77405H186.701C187.485 6.77405 188.198 6.97608 188.84 7.38015C189.506 7.76045 190.029 8.28336 190.409 8.94889C190.813 9.59064 191.015 10.3037 191.015 11.0881V27.4528H188.091V11.0881C188.091 10.7078 187.949 10.3869 187.664 10.1254C187.402 9.84021 187.081 9.6976 186.701 9.6976H174.294C173.913 9.6976 173.581 9.84021 173.295 10.1254C173.01 10.3869 172.868 10.7078 172.868 11.0881V27.4528H169.944Z" fill="#0D9AF2"/>
<path d="M149.988 27.4528C149.203 27.4528 148.478 27.2627 147.813 26.8824C147.171 26.4783 146.648 25.9554 146.244 25.3137C145.864 24.6481 145.674 23.9232 145.674 23.1388V11.0881C145.674 10.3037 145.864 9.59064 146.244 8.94889C146.648 8.28336 147.171 7.76045 147.813 7.38015C148.478 6.97608 149.203 6.77405 149.988 6.77405H162.395C163.203 6.77405 163.928 6.97608 164.57 7.38015C165.235 7.76045 165.758 8.28336 166.138 8.94889C166.543 9.59064 166.745 10.3037 166.745 11.0881V23.1388C166.745 23.9232 166.543 24.6481 166.138 25.3137C165.758 25.9554 165.235 26.4783 164.57 26.8824C163.928 27.2627 163.203 27.4528 162.395 27.4528H149.988ZM149.988 24.5293H162.395C162.775 24.5293 163.096 24.3986 163.358 24.1371C163.643 23.8519 163.785 23.5191 163.785 23.1388V11.0881C163.785 10.7078 163.643 10.3869 163.358 10.1254C163.096 9.84021 162.775 9.6976 162.395 9.6976H149.988C149.607 9.6976 149.275 9.84021 148.989 10.1254C148.728 10.3869 148.597 10.7078 148.597 11.0881V23.1388C148.597 23.5191 148.728 23.8519 148.989 24.1371C149.275 24.3986 149.607 24.5293 149.988 24.5293Z" fill="#0D9AF2"/>
<path d="M125.439 27.4528C124.655 27.4528 123.93 27.2627 123.264 26.8824C122.622 26.4783 122.099 25.9554 121.695 25.3137C121.315 24.6481 121.125 23.9232 121.125 23.1388V22.8536H124.048V23.1388C124.048 23.5191 124.179 23.8519 124.441 24.1371C124.726 24.3986 125.059 24.5293 125.439 24.5293H137.846C138.226 24.5293 138.547 24.3986 138.809 24.1371C139.094 23.8519 139.237 23.5191 139.237 23.1388V19.9657C139.237 19.5854 139.094 19.2645 138.809 19.0031C138.547 18.7178 138.226 18.5752 137.846 18.5752H125.439C124.655 18.5752 123.93 18.3851 123.264 18.0048C122.622 17.6007 122.099 17.0778 121.695 16.436C121.315 15.7705 121.125 15.0456 121.125 14.2612V11.0881C121.125 10.3037 121.315 9.59064 121.695 8.94889C122.099 8.28336 122.622 7.76045 123.264 7.38015C123.93 6.97608 124.655 6.77405 125.439 6.77405H137.846C138.654 6.77405 139.379 6.97608 140.021 7.38015C140.687 7.76045 141.209 8.28336 141.59 8.94889C141.994 9.59064 142.196 10.3037 142.196 11.0881V11.3733H139.237V11.0881C139.237 10.7078 139.094 10.3869 138.809 10.1254C138.547 9.84021 138.226 9.6976 137.846 9.6976H125.439C125.059 9.6976 124.726 9.84021 124.441 10.1254C124.179 10.3869 124.048 10.7078 124.048 11.0881V14.2612C124.048 14.6415 124.179 14.9743 124.441 15.2595C124.726 15.5209 125.059 15.6517 125.439 15.6517H137.846C138.654 15.6517 139.379 15.8537 140.021 16.2578C140.687 16.6381 141.209 17.161 141.59 17.8265C141.994 18.4683 142.196 19.1813 142.196 19.9657V23.1388C142.196 23.9232 141.994 24.6481 141.59 25.3137C141.209 25.9554 140.687 26.4783 140.021 26.8824C139.379 27.2627 138.654 27.4528 137.846 27.4528H125.439Z" fill="#0D9AF2"/>
<path d="M101.523 27.4528C100.738 27.4528 100.013 27.2627 99.3478 26.8824C98.706 26.4783 98.1831 25.9554 97.7791 25.3137C97.3988 24.6481 97.2086 23.9232 97.2086 23.1388V15.6517H115.32V11.0881C115.32 10.7078 115.178 10.3869 114.893 10.1254C114.631 9.84021 114.31 9.6976 113.93 9.6976H97.2086V6.77405H113.93C114.738 6.77405 115.463 6.97608 116.105 7.38015C116.77 7.76045 117.293 8.28336 117.673 8.94889C118.078 9.59064 118.28 10.3037 118.28 11.0881V27.4528H101.523ZM101.523 24.5293H115.32V18.5752H100.132V23.1388C100.132 23.5191 100.263 23.8519 100.524 24.1371C100.81 24.3986 101.142 24.5293 101.523 24.5293Z" fill="#0D9AF2"/>
<path d="M76.8013 27.4528C76.017 27.4528 75.292 27.2627 74.6265 26.8824C73.9847 26.4783 73.4618 25.9554 73.0578 25.3137C72.6775 24.6481 72.4873 23.9232 72.4873 23.1388V11.0881C72.4873 10.3037 72.6775 9.59064 73.0578 8.94889C73.4618 8.28336 73.9847 7.76045 74.6265 7.38015C75.292 6.97608 76.017 6.77405 76.8013 6.77405H89.2086C90.0167 6.77405 90.7417 6.97608 91.3834 7.38015C92.049 7.76045 92.5719 8.28336 92.9522 8.94889C93.3562 9.59064 93.5583 10.3037 93.5583 11.0881V18.5752H75.4109V23.1388C75.4109 23.5191 75.5416 23.8519 75.803 24.1371C76.0883 24.3986 76.421 24.5293 76.8013 24.5293H93.5583V27.4528H76.8013ZM75.4109 15.6517H90.5991V11.0881C90.5991 10.7078 90.4565 10.3869 90.1712 10.1254C89.9098 9.84021 89.5889 9.6976 89.2086 9.6976H76.8013C76.421 9.6976 76.0883 9.84021 75.803 10.1254C75.5416 10.3869 75.4109 10.7078 75.4109 11.0881V15.6517Z" fill="#0D9AF2"/>
<path d="M54.2787 27.4528V11.0881C54.2787 10.3037 54.4689 9.59064 54.8492 8.94889C55.2533 8.28336 55.7762 7.76045 56.4179 7.38015C57.0835 6.97608 57.8084 6.77405 58.5928 6.77405H70.2157V9.6976H58.5928C58.2125 9.6976 57.8797 9.84021 57.5945 10.1254C57.333 10.3869 57.2023 10.7078 57.2023 11.0881V27.4528H54.2787Z" fill="#0D9AF2"/>
<path d="M29.5252 27.4528V6.77405H46.2822C47.0665 6.77405 47.7796 6.97608 48.4213 7.38015C49.0869 7.76045 49.6098 8.28336 49.9901 8.94889C50.3941 9.59064 50.5962 10.3037 50.5962 11.0881V27.4528H47.6726V11.0881C47.6726 10.7078 47.53 10.3869 47.2448 10.1254C46.9833 9.84021 46.6625 9.6976 46.2822 9.6976H33.8749C33.4946 9.6976 33.1618 9.84021 32.8766 10.1254C32.5914 10.3869 32.4488 10.7078 32.4488 11.0881V27.4528H29.5252Z" fill="#0D9AF2"/>
<path d="M4.27837 27.4528C3.494 27.4528 2.76906 27.2627 2.10353 26.8824C1.46178 26.5021 0.950749 25.991 0.570449 25.3493C0.19015 24.6838 0 23.9588 0 23.1744V1.78259H2.8879V23.1744C2.8879 23.5547 3.01863 23.8875 3.28008 24.1727C3.56531 24.4342 3.89807 24.5649 4.27837 24.5649H21.3919C21.7722 24.5649 22.093 24.4342 22.3545 24.1727C22.6397 23.8875 22.7823 23.5547 22.7823 23.1744V1.78259H25.6702V23.1744C25.6702 23.9588 25.4801 24.6838 25.0998 25.3493C24.7195 25.991 24.1966 26.5021 23.531 26.8824C22.8893 27.2627 22.1762 27.4528 21.3919 27.4528H4.27837Z" fill="#0D9AF2"/>
</svg>
